<?xml version="1.0" encoding="utf-8"?>
<!-- Generator: Adobe Illustrator 16.0.0, SVG Export Plug-In . SVG Version: 6.00 Build 0)  -->
<!DOCTYPE svg PUBLIC "-//W3C//DTD SVG 1.1//EN" "http://www.w3.org/Graphics/SVG/1.1/DTD/svg11.dtd">
<svg version="1.1" xmlns="http://www.w3.org/2000/svg" xmlns:xlink="http://www.w3.org/1999/xlink" x="0px" y="0px"
	 width="850.39px" height="595.28px" viewBox="0 0 850.39 595.28" enable-background="new 0 0 850.39 595.28" xml:space="preserve">
<g id="Layer_2">
</g>
<g id="Layer_1">
	<g>
		<polygon fill="#1B93D1" points="509.024,292.292 547.668,262.47 302.001,291.631 520.627,274.326 		"/>
	</g>
	<g>
		<polygon fill="#1B93D1" points="406.278,256.863 436.313,272.123 379.248,279.076 		"/>
	</g>
	<g>
		<path d="M302.15,319.445v-23.401h4.989v8.922h9.341v-8.922h4.988v23.401h-4.988v-10.446h-9.341v10.446H302.15z"/>
		<path d="M332.821,296.044h5.682l8.501,23.401h-5.444l-1.586-4.811h-8.849l-1.629,4.811h-5.252L332.821,296.044z M332.49,310.603
			h6.154l-3.035-9.208L332.49,310.603z"/>
		<path d="M351.13,298.489c1.936-1.926,4.397-2.89,7.387-2.89c4,0,6.924,1.292,8.773,3.874c1.021,1.45,1.569,2.905,1.645,4.366
			h-5.021c-0.319-1.122-0.729-1.969-1.229-2.541c-0.895-1.016-2.22-1.523-3.977-1.523c-1.789,0-3.2,0.717-4.232,2.15
			c-1.032,1.435-1.549,3.465-1.549,6.089c0,2.625,0.545,4.591,1.635,5.897c1.09,1.308,2.474,1.961,4.153,1.961
			c1.723,0,3.035-0.561,3.939-1.683c0.499-0.604,0.914-1.509,1.243-2.715h4.988c-0.43,2.551-1.529,4.626-3.298,6.224
			s-4.034,2.396-6.798,2.396c-3.419,0-6.106-1.079-8.063-3.238c-1.956-2.17-2.935-5.144-2.935-8.922
			C347.792,303.85,348.904,300.701,351.13,298.489z"/>
		<path d="M372.59,296.044h4.939v9.641l9.283-9.641h6.488l-9.86,9.624l10.365,13.777h-6.455l-7.403-10.215l-2.418,2.389v7.826
			h-4.939V296.044z"/>
		<path d="M414.146,300.188h-12.715v4.97h11.672v4.063h-11.672v6.018h13.302v4.207h-18.209v-23.401h17.622V300.188z"/>
		<path d="M433.693,296.647c0.885,0.371,1.635,0.916,2.249,1.635c0.509,0.593,0.912,1.249,1.209,1.969
			c0.296,0.719,0.444,1.539,0.444,2.46c0,1.111-0.288,2.204-0.863,3.278c-0.576,1.074-1.527,1.834-2.854,2.278
			c1.109,0.435,1.894,1.051,2.356,1.85c0.462,0.8,0.692,2.019,0.692,3.659v1.572c0,1.068,0.044,1.794,0.133,2.175
			c0.132,0.603,0.441,1.048,0.927,1.333v0.588h-5.542c-0.152-0.519-0.262-0.937-0.326-1.254c-0.131-0.656-0.201-1.328-0.212-2.017
			L431.874,314c-0.021-1.492-0.285-2.487-0.794-2.984c-0.509-0.498-1.463-0.746-2.86-0.746h-4.903v9.176h-4.907v-23.401h11.493
			C431.545,296.076,432.809,296.277,433.693,296.647z M423.316,300.108v6.287h5.403c1.073,0,1.878-0.127,2.415-0.382
			c0.949-0.443,1.424-1.322,1.424-2.635c0-1.418-0.459-2.371-1.378-2.857c-0.516-0.275-1.29-0.413-2.322-0.413H423.316z"/>
		<path d="M445.54,312.222c0.155,1.069,0.46,1.868,0.915,2.397c0.832,0.963,2.259,1.445,4.278,1.445
			c1.209,0,2.191-0.128,2.945-0.382c1.432-0.487,2.147-1.392,2.147-2.715c0-0.772-0.351-1.37-1.052-1.794
			c-0.701-0.412-1.813-0.777-3.336-1.096l-2.602-0.555c-2.557-0.551-4.313-1.148-5.27-1.795c-1.619-1.079-2.429-2.768-2.429-5.064
			c0-2.096,0.792-3.836,2.376-5.223c1.584-1.386,3.911-2.08,6.98-2.08c2.563,0,4.75,0.653,6.56,1.96
			c1.811,1.307,2.759,3.205,2.847,5.691h-4.825c-0.089-1.407-0.735-2.408-1.938-3c-0.802-0.393-1.799-0.588-2.991-0.588
			c-1.326,0-2.385,0.254-3.176,0.762s-1.187,1.218-1.187,2.128c0,0.836,0.391,1.46,1.17,1.873c0.502,0.275,1.565,0.599,3.192,0.969
			l4.217,0.968c1.849,0.424,3.233,0.99,4.156,1.699c1.432,1.102,2.148,2.693,2.148,4.779c0,2.137-0.849,3.912-2.546,5.326
			c-1.697,1.412-4.095,2.119-7.192,2.119c-3.163,0-5.651-0.695-7.464-2.088c-1.812-1.392-2.719-3.305-2.719-5.739H445.54z"/>
		<path d="M480.24,309.316c-1.407,1.143-3.415,1.715-6.026,1.715h-5.003v8.414h-4.988v-23.401h10.317
			c2.378,0,4.274,0.603,5.688,1.81s2.121,3.075,2.121,5.605C482.35,306.221,481.646,308.174,480.24,309.316z M476.408,300.887
			c-0.636-0.519-1.527-0.778-2.673-0.778h-4.524v6.89h4.524c1.146,0,2.037-0.279,2.673-0.841s0.953-1.45,0.953-2.667
			S477.044,301.405,476.408,300.887z"/>
		<path d="M490.814,296.044h5.682l8.501,23.401h-5.444l-1.586-4.811h-8.849l-1.629,4.811h-5.252L490.814,296.044z M490.483,310.603
			h6.154l-3.035-9.208L490.483,310.603z"/>
		<path d="M509.123,298.489c1.936-1.926,4.397-2.89,7.387-2.89c4,0,6.924,1.292,8.773,3.874c1.021,1.45,1.569,2.905,1.645,4.366
			h-5.021c-0.319-1.122-0.729-1.969-1.229-2.541c-0.895-1.016-2.22-1.523-3.977-1.523c-1.789,0-3.2,0.717-4.232,2.15
			c-1.032,1.435-1.549,3.465-1.549,6.089c0,2.625,0.545,4.591,1.635,5.897c1.09,1.308,2.474,1.961,4.153,1.961
			c1.723,0,3.035-0.561,3.939-1.683c0.499-0.604,0.914-1.509,1.243-2.715h4.988c-0.43,2.551-1.529,4.626-3.298,6.224
			s-4.034,2.396-6.798,2.396c-3.419,0-6.106-1.079-8.063-3.238c-1.956-2.17-2.935-5.144-2.935-8.922
			C505.785,303.85,506.897,300.701,509.123,298.489z"/>
		<path d="M548.235,300.188h-12.715v4.97h11.672v4.063h-11.672v6.018h13.302v4.207h-18.209v-23.401h17.622V300.188z"/>
	</g>
	<g>
		<path d="M304.372,333.193c0.075,0.983,0.388,1.782,0.94,2.396c1.052,1.148,2.906,1.723,5.562,1.723
			c1.189,0,2.273-0.125,3.251-0.377c1.892-0.488,2.837-1.361,2.837-2.621c0-0.945-0.4-1.617-1.202-2.02
			c-0.812-0.393-2.084-0.735-3.814-1.026l-3.189-0.531c-2.084-0.347-3.559-0.728-4.424-1.146c-1.496-0.724-2.244-1.807-2.244-3.246
			c0-1.559,0.735-2.838,2.206-3.837s3.553-1.499,6.247-1.499c2.479,0,4.585,0.438,6.319,1.316c1.733,0.877,2.6,2.28,2.6,4.209
			h-3.094c-0.159-0.93-0.497-1.642-1.016-2.138c-0.962-0.905-2.596-1.357-4.9-1.357c-1.861,0-3.199,0.291-4.014,0.874
			c-0.814,0.582-1.222,1.259-1.222,2.03c0,0.85,0.481,1.472,1.443,1.865c0.63,0.252,2.057,0.566,4.28,0.944l3.302,0.555
			c1.593,0.268,2.821,0.634,3.687,1.098c1.497,0.811,2.245,1.988,2.245,3.53c0,1.921-0.955,3.294-2.864,4.12s-4.128,1.24-6.655,1.24
			c-2.948,0-5.255-0.551-6.922-1.653c-1.669-1.094-2.486-2.577-2.453-4.45H304.372z"/>
		<path d="M345.753,321.446h3.326v17.343h-3.326V321.446z"/>
		<path d="M375.166,321.446h3.292v15.276h12.193v2.066h-15.485V321.446z"/>
		<path d="M414.757,321.446h17.637v2.125h-14.428v5.265h13.335v2.008h-13.335v5.879h14.676v2.066h-17.885V321.446z"/>
		<path d="M459.204,333.193c0.075,0.983,0.388,1.782,0.94,2.396c1.052,1.148,2.906,1.723,5.562,1.723
			c1.189,0,2.273-0.125,3.251-0.377c1.892-0.488,2.837-1.361,2.837-2.621c0-0.945-0.4-1.617-1.202-2.02
			c-0.812-0.393-2.084-0.735-3.814-1.026l-3.189-0.531c-2.084-0.347-3.559-0.728-4.424-1.146c-1.496-0.724-2.244-1.807-2.244-3.246
			c0-1.559,0.735-2.838,2.206-3.837s3.553-1.499,6.247-1.499c2.479,0,4.585,0.438,6.319,1.316c1.733,0.877,2.6,2.28,2.6,4.209
			h-3.094c-0.159-0.93-0.497-1.642-1.016-2.138c-0.962-0.905-2.596-1.357-4.9-1.357c-1.861,0-3.199,0.291-4.014,0.874
			c-0.814,0.582-1.222,1.259-1.222,2.03c0,0.85,0.481,1.472,1.443,1.865c0.63,0.252,2.057,0.566,4.28,0.944l3.302,0.555
			c1.593,0.268,2.821,0.634,3.687,1.098c1.497,0.811,2.245,1.988,2.245,3.53c0,1.921-0.955,3.294-2.864,4.12s-4.128,1.24-6.655,1.24
			c-2.948,0-5.255-0.551-6.922-1.653c-1.669-1.094-2.486-2.577-2.453-4.45H459.204z"/>
		<path d="M500.586,321.446h3.326v17.343h-3.326V321.446z"/>
		<path d="M536.979,321.446h3.716l8.821,17.343h-3.606l-2.537-5.195h-9.535l-2.636,5.195h-3.375L536.979,321.446z M542.438,331.682
			l-3.742-7.662l-3.888,7.662H542.438z"/>
	</g>
</g>
</svg>
